<svg width="295" height="62" viewBox="0 0 295 62" fill="none" xmlns="http://www.w3.org/2000/svg">
<g clip-path="url(#clip0_2409_202)">
<path d="M14.0211 0L0 61.9957H31.3947L45.4159 0H14.0211Z" fill="white"/>
<path d="M184.768 0L167.706 23.8334H166.454L160.279 0H126.267L146.151 47.2924L142.799 61.9957H174.198L177.546 47.2924L218.78 0H184.768Z" fill="white"/>
<path d="M278.854 0H233.54C223.077 0 217.108 3.63755 215.436 11.1381L213.546 19.3067C213.31 20.366 213.212 21.3573 213.233 22.289C213.357 27.5518 217.33 30.9298 222.602 33.0145C228.234 35.2438 235.345 35.9968 240.822 35.9968H258.312L257.649 38.9792L254.985 49.3728H238.24L240.545 38.9792H209.146L207.055 48.6325C205.066 57.6137 210.193 61.9957 222.855 61.9957H267.851C278.422 61.9957 284.387 58.2859 286.059 50.8576L288.697 38.9792C288.932 37.9198 289.031 36.9286 289.014 35.9968C288.89 30.7341 284.917 27.3561 279.64 25.2714C274.009 23.0463 266.898 22.289 261.42 22.289H244.201L244.863 19.3067L246.398 12.6229H263.143L261.681 19.3067H293.08L294.542 13.3632C296.638 4.38208 291.515 0 278.849 0L278.854 0Z" fill="white"/>
<path d="M109.843 0H49.7902L35.7648 61.9957H67.1595L72.4019 38.9792H89.1341L83.9045 61.9957H115.299L117.241 53.5677L118.536 47.9391C120.456 39.7067 116.488 35.3885 106.071 34.729C105.122 34.6652 104.122 34.6354 103.061 34.6354H103.249L103.852 31.5977H105.516C106.131 31.5977 106.726 31.585 107.312 31.5595C116.762 31.151 122.145 27.4539 123.727 20.4639L125.322 13.3122C127.409 4.32677 122.504 0 109.843 0ZM90.8188 26.8753H75.1172L78.3627 12.6187H94.0601L90.8188 26.8753Z" fill="white"/>
</g>
<defs>
<clipPath id="clip0_2409_202">
<rect width="295" height="62" fill="white"/>
</clipPath>
</defs>
</svg>
