<svg width="24" height="19" viewBox="0 0 24 19" fill="none" xmlns="http://www.w3.org/2000/svg">
<path d="M20.127 1.91126C18.5972 1.21899 16.9725 0.71446 15.2767 0.432861C15.0632 0.796597 14.826 1.28939 14.66 1.67659C12.8563 1.41846 11.0656 1.41846 9.2867 1.67659C9.12067 1.28939 8.87162 0.796597 8.67001 0.432861C6.96234 0.71446 5.33766 1.21899 3.81853 1.91126C0.747051 6.39337 -0.0830809 10.7699 0.331984 15.0877C2.37173 16.5544 4.34034 17.4462 6.27454 18.0329C6.7489 17.3992 7.17583 16.7187 7.54346 16.003C6.84378 15.7448 6.17967 15.428 5.53929 15.0525C5.70531 14.9353 5.87135 14.8062 6.02551 14.6771C9.89154 16.4254 14.079 16.4254 17.8975 14.6771C18.0635 14.8062 18.2177 14.9353 18.3838 15.0525C17.7433 15.428 17.0793 15.7448 16.3796 16.003C16.7472 16.7187 17.1742 17.3992 17.6485 18.0329C19.5815 17.4462 21.562 16.5544 23.591 15.0877C24.1009 10.0894 22.7834 5.74809 20.127 1.91126ZM8.0771 12.4243C6.91491 12.4243 5.96619 11.3801 5.96619 10.1011C5.96619 8.82221 6.89119 7.7779 8.0771 7.7779C9.25112 7.7779 10.2117 8.82221 10.188 10.1011C10.188 11.3801 9.25112 12.4243 8.0771 12.4243ZM15.8697 12.4243C14.7074 12.4243 13.7575 11.3801 13.7575 10.1011C13.7575 8.82221 14.6837 7.7779 15.8697 7.7779C17.0437 7.7779 18.0042 8.82221 17.9805 10.1011C17.9805 11.3801 17.0556 12.4243 15.8697 12.4243Z" fill="white"/>
</svg>
