<svg width="28" height="27" viewBox="0 0 28 27" fill="none" xmlns="http://www.w3.org/2000/svg">
<path d="M8.40294 2.83959C9.08342 3.07101 9.92517 3.43984 10.7405 3.98967C11.7286 3.73494 12.7837 3.59795 13.8771 3.59795C14.9693 3.59795 16.0234 3.73467 17.0107 3.9889C17.8258 3.43934 18.6674 3.0707 19.3476 2.8394C20.1142 2.57877 21.2068 2.15555 21.8555 2.87419C22.2959 3.36209 22.4052 4.18093 22.4837 4.80521C22.5715 5.50282 22.5919 6.41215 22.3611 7.31372C23.2442 8.4542 23.7771 9.81563 23.7771 11.2979C23.7771 13.5444 22.5604 15.4942 20.7596 16.8448C19.9307 17.4664 18.9671 17.972 17.9103 18.3366C18.1462 18.876 18.2771 19.4717 18.2771 20.0979V23.3979C18.2771 24.0055 17.7845 24.4979 17.1771 24.4979H10.577C9.96952 24.4979 9.47703 24.0055 9.47703 23.3979V22.3075C8.42618 22.4362 7.54552 22.3224 6.79584 22.0044C6.01287 21.6722 5.46714 21.1569 5.05697 20.6647C4.6679 20.1978 4.24373 19.1463 3.62916 18.9415C3.05282 18.7493 2.74135 18.1264 2.93345 17.5501C3.12557 16.9737 3.74852 16.6623 4.32485 16.8544C5.05721 17.0985 5.53407 17.6267 5.86149 18.0504C6.38845 18.7323 6.81898 19.6244 7.65505 19.979C7.99886 20.1249 8.50398 20.2217 9.29251 20.113L9.47709 20.0762C9.48009 19.4579 9.61062 18.8697 9.84373 18.3366C8.78698 17.972 7.8233 17.4664 6.9945 16.8448C5.19364 15.4942 3.97703 13.5444 3.97703 11.2979C3.97703 9.81737 4.5086 8.45736 5.38991 7.3177C5.15815 6.41542 5.17836 5.50512 5.26609 4.80682C5.26785 4.79279 5.26961 4.77871 5.27138 4.76458C5.35155 4.12495 5.44602 3.37116 5.89435 2.87431C6.5429 2.15563 7.63641 2.57892 8.40294 2.83959Z" fill="white"/>
</svg>
