<svg width="25" height="21" viewBox="0 0 25 21" fill="none" xmlns="http://www.w3.org/2000/svg">
<path fill-rule="evenodd" clip-rule="evenodd" d="M20.6978 20.331L24.7708 0.932999C24.8756 0.432766 24.3792 0.0154404 23.8981 0.199661L1.20243 8.86868C0.642285 9.08232 0.647085 9.86756 1.20883 10.0759L6.73894 12.1195L8.87942 18.9354C9.01641 19.3717 9.55553 19.5331 9.91324 19.2434L12.9959 16.7554C13.319 16.4945 13.7793 16.4816 14.1168 16.7243L19.6768 20.7211C20.0595 20.9965 20.6019 20.789 20.6978 20.331ZM8.34952 11.2218L20.0523 4.01408C20.2625 3.88497 20.479 4.16935 20.2981 4.33682L10.6401 13.3145C10.3005 13.6304 10.0817 14.0535 10.0195 14.5125L9.6907 16.9506C9.6469 17.2761 9.18985 17.3083 9.09985 16.9933L7.83456 12.5473C7.68986 12.0402 7.90097 11.4985 8.34952 11.2218Z" fill="white"/>
</svg>
