<svg width="23" height="21" viewBox="0 0 23 21" fill="none" xmlns="http://www.w3.org/2000/svg">
<g clip-path="url(#clip0_9_64)">
<path fill-rule="evenodd" clip-rule="evenodd" d="M2.5262 2.24701C1.65212 1.07789 0.940556 0.106556 0.949341 0.0933704C0.958126 0.0801849 2.40322 0.0757885 4.15577 0.0889759L7.34024 0.11095L10.0459 3.72819L12.7473 7.34103L14.9742 4.93247C16.2041 3.60952 17.7106 1.97451 18.3256 1.30644L19.4456 0.0933704L20.4032 0.0889759H21.3651L20.8424 0.647163C19.0108 2.60302 13.6257 8.45302 13.6257 8.48378C13.6257 8.50136 14.4603 9.63532 15.4793 10.9978C16.0348 11.7382 16.6282 12.5334 17.1164 13.1876C17.5237 13.7336 17.8579 14.1814 18.0357 14.4173C18.4222 14.9359 19.5379 16.4303 20.513 17.7313C21.4881 19.0366 22.2963 20.1266 22.3095 20.1618C22.327 20.2101 21.7955 20.2189 19.1469 20.2189H15.9625L13.8805 17.4412C13.3849 16.7774 12.8537 16.0656 12.3716 15.4196C11.7429 14.5772 11.1979 13.8468 10.9244 13.4811L10.0459 12.3032L9.93614 12.4307C9.87464 12.501 8.37245 14.1272 6.59793 16.0479C4.82341 17.9686 3.23338 19.6871 3.06207 19.8717L2.75461 20.2101L1.81903 20.2145C1.26998 20.2189 0.887848 20.2014 0.896633 20.1794C0.901025 20.1574 2.69751 18.2059 4.88491 15.8369C5.43629 15.2409 5.9673 14.6669 6.45465 14.1401C7.90067 12.577 8.96232 11.4294 9.03131 11.3538L9.19383 11.1692L6.65503 7.77176C5.8371 6.67791 4.86102 5.37156 4.01697 4.24191C3.41964 3.44246 2.88844 2.73151 2.5262 2.24701Z" fill="white"/>
</g>
<defs>
<clipPath id="clip0_9_64">
<rect width="21.4348" height="20.1739" fill="white" transform="translate(0.885742 0.0441284)"/>
</clipPath>
</defs>
</svg>
