<svg width="25" height="19" viewBox="0 0 25 19" fill="none" xmlns="http://www.w3.org/2000/svg">
<path fill-rule="evenodd" clip-rule="evenodd" d="M12.6936 0.0545654C13.7035 0.0545654 14.7379 0.081032 15.7414 0.122762L16.9273 0.179449L18.0621 0.246487L19.1248 0.319575L20.0939 0.394412C22.2638 0.570492 24.0076 2.24971 24.2197 4.43571L24.2667 4.9369L24.3552 6.01114C24.438 7.12468 24.4992 8.33892 24.4992 9.49901C24.4992 10.6591 24.438 11.8733 24.3552 12.9869L24.2667 14.0611C24.2512 14.2326 24.2355 14.3999 24.2197 14.5623C24.0076 16.7483 22.2638 18.4276 20.0939 18.6036L19.1248 18.6784L18.0621 18.7515L16.9273 18.8185L15.7414 18.8752C14.7379 18.917 13.7035 18.9435 12.6936 18.9435C11.6838 18.9435 10.6493 18.917 9.64583 18.8752L8.45998 18.8185L7.32508 18.7515L6.26242 18.6784L5.2933 18.6036C3.12346 18.4276 1.37964 16.7483 1.16748 14.5623L1.12054 14.0611L1.032 12.9869C0.949209 11.8733 0.888062 10.6591 0.888062 9.49901C0.888062 8.33892 0.949209 7.12468 1.032 6.01114L1.12054 4.9369C1.13601 4.76537 1.15172 4.59807 1.16748 4.43571C1.37964 2.24971 3.12346 0.570492 5.2933 0.394412L6.26242 0.319575L7.32508 0.246487L8.45997 0.179449L9.64582 0.122762C10.6493 0.081032 11.6838 0.0545654 12.6936 0.0545654ZM10.3325 6.63632V12.3617C10.3325 12.907 10.9228 13.2477 11.395 12.9752L16.3533 10.1124C16.8256 9.83984 16.8256 9.15818 16.3533 8.88559L11.395 6.02288C10.9228 5.75024 10.3325 6.09104 10.3325 6.63632Z" fill="white"/>
</svg>
