<svg width="18" height="22" viewBox="0 0 18 22" fill="none" xmlns="http://www.w3.org/2000/svg">
<path fill-rule="evenodd" clip-rule="evenodd" d="M10.4665 0.51833C10.1273 0.508301 9.72358 0.508301 9.21342 0.508301H8.46646C5.6662 0.508301 4.26607 0.508301 3.19651 1.05327C2.2557 1.53264 1.4908 2.29754 1.01143 3.23835C0.466461 4.30791 0.466461 5.70804 0.466461 8.5083V14.0083C0.466461 16.8086 0.466461 18.2087 1.01143 19.2783C1.4908 20.2191 2.2557 20.984 3.19651 21.4633C4.26607 22.0083 5.6662 22.0083 8.46646 22.0083H9.96646C12.7667 22.0083 14.1669 22.0083 15.2364 21.4633C16.1772 20.984 16.9421 20.2191 17.4215 19.2783C17.9665 18.2087 17.9665 16.8086 17.9665 14.0083V9.26135C17.9665 8.75119 17.9665 8.34743 17.9564 8.00831H14.4165H14.386H14.386C13.8518 8.00832 13.406 8.00833 13.0418 7.97857C12.6619 7.94754 12.3053 7.88043 11.968 7.70858C11.4505 7.44493 11.0298 7.02423 10.7662 6.50679C10.5943 6.16953 10.5272 5.81287 10.4962 5.43298C10.4664 5.06875 10.4664 4.6229 10.4665 4.08874V4.05831V0.51833ZM17.7329 6.50831C17.6106 6.12233 17.4417 5.7522 17.2297 5.40622C16.9205 4.90164 16.4881 4.46926 15.6233 3.60451L15.6233 3.60449L14.8703 2.85145L14.8703 2.85144C14.0055 1.98669 13.5731 1.55431 13.0685 1.2451C12.7226 1.03308 12.3524 0.864202 11.9665 0.74189V4.05831C11.9665 4.63074 11.967 5.01496 11.9912 5.31084C12.0147 5.59796 12.0566 5.73524 12.1027 5.8258C12.2225 6.061 12.4138 6.25223 12.649 6.37207C12.7395 6.41821 12.8768 6.4601 13.1639 6.48356C13.4598 6.50773 13.844 6.50831 14.4165 6.50831H17.7329ZM6.21646 10.5083C5.80225 10.5083 5.46646 10.8441 5.46646 11.2583C5.46646 11.6725 5.80225 12.0083 6.21646 12.0083H12.2165C12.6307 12.0083 12.9665 11.6725 12.9665 11.2583C12.9665 10.8441 12.6307 10.5083 12.2165 10.5083H6.21646ZM6.21646 14.5083C5.80225 14.5083 5.46646 14.8441 5.46646 15.2583C5.46646 15.6725 5.80225 16.0083 6.21646 16.0083H10.2165C10.6307 16.0083 10.9665 15.6725 10.9665 15.2583C10.9665 14.8441 10.6307 14.5083 10.2165 14.5083H6.21646Z" fill="white"/>
</svg>
